<?xml version="1.0" standalone="no"?>
<!DOCTYPE svg PUBLIC "-//W3C//DTD SVG 20010904//EN"
 "http://www.w3.org/TR/2001/REC-SVG-20010904/DTD/svg10.dtd">
<svg version="1.0" xmlns="http://www.w3.org/2000/svg"
 width="240.000000pt" height="240.000000pt" viewBox="0 0 240.000000 240.000000"
 preserveAspectRatio="xMidYMid meet">

<g transform="translate(0.000000,240.000000) scale(0.100000,-0.100000)"
fill="#FF6400" stroke="none">
<path d="M1109 2378 c-247 -17 -486 -116 -678 -280 -189 -160 -316 -365 -382
-613 -29 -110 -32 -133 -32 -280 -1 -119 4 -182 17 -245 52 -245 175 -464 354
-632 100 -93 189 -154 316 -214 91 -43 265 -95 310 -93 18 1 18 2 3 6 -14 4
-17 11 -13 26 3 12 6 25 6 29 0 8 83 -2 93 -12 19 -17 -4 -49 -36 -52 -18 -2
11 -7 63 -12 212 -18 473 43 665 156 289 170 476 421 566 758 26 98 36 326 20
440 -72 491 -438 886 -922 996 -95 21 -235 30 -350 22z m89 -30 c-2 -19 -10
-24 -44 -26 -34 -3 -42 0 -47 17 -7 27 -1 31 50 31 40 0 44 -2 41 -22z m-198
-22 c0 -20 -6 -24 -41 -30 -46 -7 -59 -2 -59 24 0 18 17 24 78 29 17 1 22 -4
22 -23z m473 -45 c213 -56 379 -154 533 -312 218 -227 326 -510 311 -823 -24
-510 -381 -928 -891 -1043 -97 -22 -345 -22 -443 0 -227 51 -403 147 -565 308
-146 145 -240 310 -296 518 -22 85 -25 115 -25 271 -1 158 2 184 26 273 108
401 420 710 815 807 114 28 123 29 297 25 121 -3 179 -8 238 -24z m-669 3 c10
-27 7 -31 -34 -48 -50 -20 -47 -20 -60 4 -10 18 -6 23 32 40 54 23 55 23 62 4z
m-184 -95 c7 -11 10 -22 8 -23 -72 -52 -78 -54 -95 -27 -10 17 -7 22 25 44 46
32 49 32 62 6z m-184 -168 c-34 -34 -37 -35 -53 -18 -16 16 -15 19 17 52 32
33 35 34 52 18 18 -16 18 -18 -16 -52z m-121 -94 c17 -13 17 -15 -5 -45 -26
-35 -41 -40 -58 -19 -9 10 -6 21 11 45 25 36 27 37 52 19z m-106 -156 c23 -15
-15 -93 -43 -89 -28 4 -30 26 -6 66 21 34 27 37 49 23z m-74 -191 c9 -15 -16
-90 -31 -90 -38 0 -43 10 -27 56 10 31 20 44 33 44 11 0 22 -4 25 -10z m-45
-217 c0 -52 -11 -73 -36 -73 -21 0 -24 5 -24 34 0 50 9 66 36 66 20 0 24 -5
24 -27z m-10 -223 c0 -46 -2 -50 -24 -50 -27 0 -36 16 -36 66 0 31 3 34 30 34
29 0 30 -1 30 -50z m25 -191 c8 -45 8 -44 -21 -53 -19 -6 -23 -1 -32 36 -13
49 -9 58 23 58 19 0 24 -7 30 -41z m2228 -79 c-3 -49 -20 -79 -42 -73 -24 6
-26 25 -10 72 9 24 16 31 33 29 16 -2 21 -9 19 -28z m-2168 -106 c15 -39 15
-48 4 -55 -26 -16 -40 -9 -55 26 -19 46 -18 54 9 65 12 5 23 9 23 9 1 1 9 -20
19 -45z m2093 -63 c11 -7 10 -16 -7 -50 -22 -42 -38 -50 -58 -30 -9 9 -7 21 8
50 19 39 33 46 57 30z m-2001 -112 c26 -40 27 -42 8 -55 -25 -19 -34 -15 -59
28 -21 37 -21 37 -1 52 11 9 21 16 22 16 2 0 15 -19 30 -41z m1892 -63 c14
-16 4 -43 -23 -66 -13 -10 -19 -10 -31 0 -20 16 -19 22 6 54 23 30 32 32 48
12z m-1766 -100 c26 -33 26 -34 7 -51 -19 -17 -21 -17 -41 1 -33 29 -42 53
-28 70 18 22 34 17 62 -20z m1642 -41 c19 -15 18 -16 -17 -52 -31 -31 -39 -35
-52 -24 -22 19 -20 31 11 63 31 32 31 32 58 13z m-1498 -89 c27 -24 27 -24 9
-45 l-18 -20 -34 26 c-33 24 -34 27 -18 44 22 24 27 24 61 -5z m1347 -49 c11
-17 -1 -30 -53 -59 -20 -11 -25 -10 -37 7 -19 26 -19 27 24 52 41 24 51 25 66
0z m-1194 -47 c41 -21 47 -33 30 -60 -8 -12 -15 -11 -54 8 -43 20 -45 23 -34
47 14 30 10 30 58 5z m1014 -46 c10 -26 7 -30 -35 -50 -40 -18 -42 -18 -55 1
-20 27 -18 31 24 48 48 20 59 21 66 1z m-784 -57 c-1 -28 -18 -40 -51 -33 -55
10 -65 20 -51 50 11 25 11 25 57 10 25 -9 45 -21 45 -27z m594 -24 c6 -19 2
-22 -41 -31 -55 -12 -63 -9 -63 22 0 19 8 25 43 33 46 10 52 8 61 -24z m-204
-27 c0 -24 -21 -36 -67 -36 -19 0 -23 6 -23 30 0 29 2 30 45 30 41 0 45 -2 45
-24z"/>
<path d="M1119 2235 c-57 -31 -60 -126 -6 -171 26 -22 38 -25 71 -21 56 8 86
44 86 103 0 84 -77 129 -151 89z m105 -37 c24 -34 21 -94 -6 -112 -57 -40
-125 5 -114 74 7 42 29 60 72 60 23 0 38 -7 48 -22z"/>
<path d="M1345 2238 c-2 -7 -13 -52 -24 -100 -15 -72 -16 -88 -5 -92 9 -3 16
4 20 22 3 15 11 47 18 72 l12 45 18 -53 c10 -29 25 -56 33 -59 8 -3 30 10 54
33 43 42 44 39 28 -36 -8 -37 -8 -55 0 -63 13 -13 15 -8 40 106 25 114 12 122
-61 42 l-52 -57 -25 73 c-25 70 -46 95 -56 67z"/>
<path d="M875 2188 c-16 -6 -31 -12 -32 -13 -3 -1 57 -186 62 -192 1 -2 23 4
48 13 58 20 77 45 77 102 0 35 -6 49 -29 73 -32 31 -70 37 -126 17z m109 -40
c29 -46 30 -75 2 -102 -43 -44 -61 -35 -86 40 -25 74 -21 84 37 84 23 0 37 -7
47 -22z"/>
<path d="M1848 1915 c-38 -36 -68 -69 -68 -75 0 -18 23 -11 52 17 l28 27 34
-33 c45 -44 61 -22 17 23 -30 31 -31 33 -13 49 27 24 36 21 69 -20 18 -22 34
-33 41 -29 14 8 -63 106 -82 106 -6 -1 -41 -30 -78 -65z"/>
<path d="M580 1953 c-19 -16 -30 -19 -54 -12 -37 11 -40 8 -25 -25 9 -18 9
-33 2 -48 -17 -37 -14 -43 16 -40 21 2 34 -4 49 -22 25 -33 28 -33 36 5 4 22
14 34 36 42 36 14 37 20 7 36 -14 8 -28 27 -33 48 l-9 36 -25 -20z"/>
<path d="M1102 1959 c-304 -39 -566 -269 -648 -569 -29 -102 -26 -312 4 -410
38 -121 97 -223 179 -311 156 -165 310 -236 533 -246 107 -5 139 -2 210 16
245 60 452 238 541 465 36 91 36 102 -1 110 -20 3 -30 12 -30 23 -1 10 -11
-15 -24 -55 -93 -286 -365 -482 -671 -482 -116 0 -121 4 -129 97 -8 105 -11
312 -4 319 3 3 61 9 129 14 241 18 416 56 521 112 68 36 98 69 98 107 -1 75
-91 178 -199 227 -62 29 -63 30 -105 119 -80 167 -165 256 -280 290 -59 18
-88 19 -139 4 -77 -21 -123 -83 -169 -227 -11 -37 -28 -73 -36 -79 -9 -7 -35
-13 -59 -13 -41 0 -43 -1 -69 -52 -33 -66 -81 -136 -113 -165 -29 -28 -21 -28
77 -4 43 10 89 22 104 25 l28 6 -7 -112 c-3 -62 -8 -116 -12 -120 -3 -3 -72
-10 -153 -14 l-147 -7 -8 39 c-14 66 -8 234 11 304 27 100 92 216 165 293 127
135 263 202 449 223 l62 7 0 38 c0 44 4 43 -108 28z m110 -356 c22 -24 78
-122 78 -137 0 -3 -12 -4 -27 -1 -16 2 -59 7 -96 10 l-68 7 7 36 c4 20 13 54
21 75 19 46 48 49 85 10z m98 -291 l45 -7 19 -67 c11 -38 22 -68 25 -68 3 0
21 23 40 50 34 50 34 50 60 34 45 -28 71 -57 71 -76 0 -40 -158 -84 -388 -109
-62 -6 -115 -9 -118 -6 -4 3 -3 60 1 126 6 99 10 121 24 124 26 7 171 6 221
-1z m-692 -336 c29 -10 92 -26 140 -35 l87 -18 18 -49 c42 -117 94 -231 129
-286 21 -32 38 -61 38 -63 0 -8 -131 44 -169 67 -121 73 -220 180 -279 303
-40 82 -48 109 -31 103 8 -3 38 -13 67 -22z"/>
<path d="M1252 1955 c3 -4 3 -19 -2 -35 -7 -24 -5 -29 13 -34 12 -3 33 -6 47
-6 23 0 26 4 25 38 0 37 0 37 -45 40 -25 2 -42 0 -38 -3z"/>
<path d="M1384 1910 c-4 -18 -13 -30 -23 -31 -9 0 9 -9 40 -18 175 -55 320
-172 412 -331 30 -53 77 -187 78 -227 1 -17 3 -21 6 -10 4 15 35 23 66 18 5
-1 6 6 4 16 -3 10 -8 32 -12 50 -6 30 -7 31 -37 21 -24 -8 -32 -8 -39 3 -14
22 -11 29 19 41 15 7 28 13 30 14 5 3 -26 74 -32 74 -3 0 -17 -5 -31 -12 -22
-10 -28 -9 -36 3 -14 22 -11 28 16 41 30 14 30 14 5 56 l-20 33 -29 -20 c-21
-15 -31 -17 -39 -9 -17 17 -15 27 11 48 l22 18 -29 31 -30 31 -21 -20 c-13
-12 -29 -18 -38 -14 -22 8 -21 16 3 47 l20 25 -31 23 c-26 18 -33 20 -40 8
-21 -35 -27 -39 -42 -33 -21 8 -21 23 -2 51 15 21 14 23 -24 43 -22 11 -42 20
-45 20 -2 0 -7 -13 -11 -30 -7 -30 -19 -37 -44 -21 -10 6 -11 13 -2 29 17 31
14 39 -20 51 -45 16 -49 14 -55 -19z"/>
<path d="M1975 1779 c-96 -62 -91 -57 -79 -69 6 -6 37 8 83 37 l74 46 18 -24
c24 -31 24 -66 0 -79 -27 -14 -27 -14 -55 16 l-24 27 -18 -56 c-21 -69 -10
-116 13 -51 14 41 14 41 57 37 37 -5 46 -2 60 18 9 13 16 32 16 42 0 20 -48
107 -58 107 -4 0 -43 -23 -87 -51z"/>
<path d="M312 1726 c-12 -24 -22 -51 -22 -60 0 -57 73 -113 131 -101 29 7 89
73 89 99 0 9 -157 106 -172 106 -2 0 -14 -20 -26 -44z m99 -28 c32 -18 59 -39
59 -46 0 -18 -46 -62 -65 -62 -24 0 -72 27 -79 45 -9 26 -7 53 6 75 7 11 14
20 16 20 2 0 30 -15 63 -32z"/>
<path d="M2063 1598 l-81 -30 19 -56 c11 -31 24 -61 29 -66 19 -19 22 4 6 50
-17 50 -15 58 20 68 17 5 23 0 34 -34 7 -22 19 -40 27 -40 17 0 16 9 -2 54
-15 36 -15 36 11 46 34 13 39 9 54 -45 7 -25 19 -45 26 -45 19 0 18 9 -7 75
-14 37 -26 55 -37 54 -9 0 -54 -14 -99 -31z"/>
<path d="M204 1488 c-20 -68 -20 -71 -5 -76 5 -2 15 16 22 40 16 56 21 60 53
52 20 -5 25 -11 21 -23 -4 -9 -9 -31 -12 -48 -8 -46 13 -42 27 5 16 48 20 52
49 41 19 -7 22 -14 17 -35 -16 -62 -18 -84 -8 -84 11 0 55 120 47 128 -5 5
-175 62 -186 62 -3 0 -14 -28 -25 -62z"/>
<path d="M2165 1429 c-126 -18 -125 -17 -125 -48 0 -96 78 -148 159 -106 38
19 55 63 47 120 -4 25 -10 44 -14 44 -4 -1 -34 -5 -67 -10z m55 -64 c0 -22 -8
-43 -20 -55 -45 -45 -130 -13 -130 49 0 32 8 35 113 39 36 2 37 1 37 -33z"/>
<path d="M344 1304 c-6 -31 -9 -35 -33 -30 -57 11 -144 11 -148 0 -4 -13 41
-24 96 -24 66 0 82 -9 79 -43 -4 -44 18 -44 26 0 15 95 -3 187 -20 97z"/>
<path d="M1897 1168 c-3 -57 -5 -103 -4 -104 1 -1 18 -4 39 -7 l36 -5 4 44 c3
44 3 44 -29 44 -29 0 -33 3 -33 25 0 22 4 25 35 25 30 0 35 3 35 24 0 43 -10
56 -45 56 l-32 0 -6 -102z"/>
<path d="M2103 1210 c-31 -13 -57 -57 -57 -98 0 -26 8 -41 32 -63 67 -60 172
-22 172 63 0 52 -14 77 -55 94 -39 16 -60 17 -92 4z m81 -30 c47 -18 58 -77
20 -114 -22 -23 -86 -20 -112 4 -29 27 -28 65 3 95 26 27 49 31 89 15z"/>
<path d="M160 1116 c0 -8 10 -18 23 -22 30 -9 37 -22 37 -71 0 -33 -4 -43 -20
-48 -18 -6 -29 -35 -13 -35 4 0 46 23 95 52 54 32 88 59 88 69 0 12 -21 22
-87 38 -49 12 -96 24 -105 27 -12 3 -18 0 -18 -10z m159 -56 c9 -5 3 -13 -23
-30 -21 -12 -39 -21 -40 -19 -2 2 -7 19 -11 38 l-7 33 33 -7 c19 -4 40 -11 48
-15z"/>
<path d="M2025 990 c-3 -6 4 -14 17 -19 87 -34 101 -43 87 -52 -8 -5 -26 -9
-41 -9 -66 0 -73 -24 -28 -84 17 -22 28 -41 26 -43 -1 -2 -28 8 -60 22 -64 28
-76 30 -76 13 0 -11 86 -52 173 -84 30 -11 20 27 -24 86 l-39 55 42 8 c93 17
112 22 115 33 2 6 -36 27 -84 48 -97 40 -99 40 -108 26z"/>
<path d="M292 897 c-93 -36 -91 -31 -52 -123 14 -32 24 -44 31 -37 7 7 5 22
-5 48 -9 21 -16 43 -16 50 0 8 35 27 78 43 71 28 92 44 60 49 -7 1 -50 -13
-96 -30z"/>
<path d="M1627 813 c-4 -3 -7 -11 -7 -17 0 -6 5 -5 12 2 6 6 9 14 7 17 -3 3
-9 2 -12 -2z"/>
<path d="M1563 783 c-21 -8 -15 -51 8 -63 15 -9 24 -8 35 1 19 16 18 33 -4 52
-20 18 -20 18 -39 10z m47 -32 c0 -5 -6 -14 -14 -20 -17 -14 -41 11 -32 34 4
13 10 14 26 5 11 -6 20 -14 20 -19z"/>
<path d="M378 722 c-81 -57 -82 -58 -73 -72 4 -7 17 -3 37 11 35 25 49 21 79
-27 l20 -32 -36 -22 c-19 -12 -35 -25 -35 -30 0 -23 24 -15 91 32 92 63 93 64
84 77 -4 8 -15 6 -33 -7 -15 -10 -32 -22 -38 -25 -7 -4 -23 11 -39 34 l-27 42
28 23 c16 13 33 23 37 24 5 0 5 5 2 10 -11 17 -28 11 -97 -38z"/>
<path d="M1494 729 c-4 -8 0 -9 15 -4 24 7 26 3 9 -25 -18 -28 2 -45 28 -25
18 16 18 16 -4 10 -21 -6 -23 -5 -13 13 6 12 11 25 11 31 0 14 -37 14 -46 0z"/>
<path d="M1433 693 c-17 -6 -16 -38 2 -53 33 -27 72 12 45 45 -13 15 -25 17
-47 8z m37 -18 c13 -16 6 -35 -15 -35 -18 0 -28 17 -21 35 7 19 20 19 36 0z"/>
<path d="M1378 661 l24 -6 -20 -19 c-12 -10 -18 -24 -15 -32 7 -18 14 -18 39
1 18 14 18 14 -3 8 -27 -6 -30 5 -6 22 20 15 9 35 -20 34 -21 -1 -21 -1 1 -8z"/>
<path d="M1902 619 c-16 -13 -32 -16 -53 -12 -31 6 -38 -7 -19 -37 6 -10 2
-25 -12 -49 l-21 -34 35 7 c31 6 39 3 56 -19 25 -32 29 -32 37 6 5 22 15 34
36 41 36 12 37 21 4 36 -18 9 -25 19 -25 41 0 38 -10 44 -38 20z"/>
<path d="M527 517 c-48 -23 -85 -46 -83 -52 3 -11 22 -11 47 0 11 4 29 -4 52
-25 32 -28 35 -34 26 -57 -6 -18 -6 -30 0 -36 6 -6 12 -9 14 -6 8 9 67 189 67
204 0 23 -27 17 -123 -28z m82 -28 c-17 -49 -23 -52 -48 -25 l-23 24 38 20
c22 11 40 19 42 18 1 -2 -3 -18 -9 -37z"/>
<path d="M692 385 c-39 -78 -45 -105 -23 -105 4 0 20 27 36 61 32 65 43 62 44
-12 1 -51 23 -56 76 -19 24 17 46 30 49 30 4 0 -8 -28 -25 -61 -21 -43 -27
-65 -20 -72 6 -6 13 -9 15 -6 6 5 86 179 86 185 0 14 -43 -1 -88 -32 -30 -20
-57 -33 -60 -29 -4 4 -9 37 -12 73 -7 96 -25 93 -78 -13z"/>
<path d="M1608 454 c-88 -47 -48 -194 52 -194 33 0 71 23 86 51 18 36 18 63
-1 99 -30 57 -82 74 -137 44z m97 -40 c33 -35 34 -87 3 -108 -48 -34 -108 -7
-123 56 -5 21 -1 33 19 52 33 34 70 33 101 0z"/>
<path d="M1420 376 c-74 -21 -95 -44 -34 -38 27 3 32 0 38 -25 23 -92 39 -133
52 -133 17 0 18 -8 -6 75 -23 82 -25 105 -7 105 19 0 52 26 41 32 -5 3 -43 -4
-84 -16z"/>
<path d="M954 275 c-10 -52 -15 -97 -12 -100 8 -9 128 -28 135 -22 12 13 -10
26 -57 32 -37 5 -50 11 -50 23 0 32 16 43 56 40 52 -4 55 15 4 25 -37 8 -41
11 -38 35 3 29 20 33 86 19 24 -5 32 -3 32 7 0 9 -19 18 -50 25 -89 19 -86 22
-106 -84z"/>
<path d="M1150 245 c0 -85 3 -105 15 -105 11 0 15 17 17 73 l3 72 54 -73 c30
-40 59 -71 65 -69 14 4 20 85 11 155 -10 83 -30 61 -27 -29 2 -69 1 -73 -13
-54 -9 11 -36 46 -60 78 -25 31 -49 57 -55 57 -6 0 -10 -42 -10 -105z"/>
</g>
</svg>
